<?xml version="1.0" encoding="UTF-8" standalone="no"?>
<!-- Created with Inkscape (http://www.inkscape.org/) -->

<svg
   width="210mm"
   height="297mm"
   viewBox="0 0 210 297"
   version="1.1"
   id="svg1"
   xml:space="preserve"
   xmlns="http://www.w3.org/2000/svg"
   xmlns:svg="http://www.w3.org/2000/svg"><defs
     id="defs1" /><g
     id="layer1"><path
       style="fill:#f9f9f9;stroke-width:0.622506"
       d="m 118.38125,206.45357 c -2.67591,-0.50221 -5.32883,-1.59893 -10.53606,-4.35566 -4.5023,-2.38353 -7.07566,-3.42287 -9.674205,-3.90727 -1.50257,-0.2801 -5.12926,-0.24724 -6.5635,0.0594 -1.71798,0.36738 -3.80668,1.26492 -6.61909,2.84431 -5.92012,3.3246 -8.74654,4.14565 -13.41104,3.89575 -3.53866,-0.18956 -5.27644,-0.75465 -7.80919,-2.53929 -2.23216,-1.57286 -2.8948,-1.83618 -4.85486,-1.92931 -2.48228,-0.11792 -5.86659,0.611 -10.46087,2.25315 -6.09571,2.17883 -8.29757,2.74143 -12.14472,3.10313 -3.90258,0.3669 -6.76714,-0.067 -9.79263,-1.4831 -3.03832,-1.42218 -4.97994,-3.08364 -6.79761,-5.81679 -2.5051,-3.76679 -3.88055,-8.13624 -4.14696,-13.17393 -0.2666,-5.04131 0.86678,-10.08484 3.49939,-15.57222 1.5714,-3.27542 1.56263,-3.2537 1.94016,-4.79702 0.36202,-1.47992 0.42815,-3.86499 0.14983,-5.40504 -0.45455,-2.51529 -1.22508,-4.12552 -3.81814,-7.97912 -2.18093,-3.24109 -3.15788,-5.06962 -3.76571,-7.048 -0.59103,-1.9238 -0.74768,-6.0113 -0.31728,-8.27965 0.45541,-2.40022 1.59857,-4.90823 3.706,-8.13068 3.57695,-5.46948 4.4307,-9.83821 2.9686,-15.19035 -0.58407,-2.13801 -1.12946,-3.38582 -3.71005,-8.48816 -3.21276,-6.352272 -3.91294,-8.521532 -3.91701,-12.135482 -0.004,-3.83607 1.01647,-7.70017 4.50148,-17.03976 1.89247,-5.071677 3.23056,-10.763634 3.23916,-13.778571 0.009,-3.176052 -0.56519,-5.191917 -2.74054,-9.620535 -2.93145,-5.967888 -3.60348,-8.170165 -3.40537,-11.15972 0.12342,-1.862601 0.48028,-3.236772 1.28034,-4.929951 2.6449,-5.597518 7.84333,-8.67152 15.95192,-9.432879 3.0471,-0.286113 4.46559,-0.300553 6.63667,-0.06759 4.11505,0.441572 7.08563,1.324106 13.26115,3.939759 3.63129,1.538044 5.09052,1.98399 6.48829,1.982816 1.37763,-0.0012 1.65867,-0.126136 4.81152,-2.139665 5.3092,-3.390673 8.07175,-4.275028 12.72405,-4.07329 3.78947,0.164315 5.99008,0.933799 10.83404,3.788315 4.87795,2.874564 6.94194,3.624876 10.39374,3.778416 4.010475,0.178408 6.465185,-0.545455 13.891565,-4.096405 6.95157,-3.323914 8.64998,-3.856056 12.349,-3.869082 3.89735,-0.01378 7.96284,1.024596 16.68192,4.260576 5.05485,1.876045 5.66364,2.029755 7.605,1.920108 1.67059,-0.09431 3.25962,-0.567841 7.56721,-2.254765 6.064,-2.374765 8.68743,-3.027399 13.71034,-3.410733 2.80549,-0.214117 4.56188,-0.0096 7.08323,0.826056 4.41823,1.46376 7.42,4.175375 9.82653,8.876601 4.0148,7.843018 3.75457,17.439363 -0.71722,26.449625 -1.9749,3.979268 -2.32731,5.346934 -2.18701,8.487803 0.15374,3.441877 0.8418,5.15266 3.85023,9.573281 2.17089,3.18995 3.21872,5.14156 3.86454,7.19797 0.42814,1.36313 0.4555,1.63703 0.46258,4.62854 0.006,2.80684 -0.0364,3.33602 -0.36651,4.51306 -0.59255,2.11242 -1.36227,3.719542 -3.24303,6.771272 -2.15135,3.49077 -2.49895,4.15674 -3.11163,5.96137 -1.3109,3.86133 -0.95984,8.22473 1.04132,12.94242 0.3285,0.77445 1.53371,3.23375 2.67826,5.46514 2.98916,5.82762 3.79659,8.36775 3.80177,11.96026 0.006,3.72531 -0.89025,7.06358 -4.6152,17.20282 -1.04236,2.83723 -1.80309,5.45985 -2.4006,8.27595 -0.74874,3.52883 -0.88959,4.93642 -0.68038,6.79975 0.29692,2.64475 0.84928,4.29373 2.73098,8.15277 2.88022,5.90682 3.54997,8.07993 3.36945,10.93261 -0.35636,5.63081 -3.88873,10.42387 -9.36213,12.70343 -3.63061,1.51206 -8.53329,2.22838 -13.38011,1.95494 -3.97314,-0.22416 -7.62409,-1.1576 -12.40254,-3.17094 -3.7001,-1.55899 -4.84022,-1.87191 -7.22386,-1.98257 -3.02918,-0.14065 -4.35567,0.18704 -11.97719,2.95896 -3.30452,1.20183 -6.3947,2.06995 -9.31651,2.61725 -1.96507,0.36809 -5.91858,0.46375 -7.43151,0.17981 z"
       id="path1" /><path
       style="fill:#f9f9f9;stroke-width:0.698551"
       d="m 124.38245,108.54335 c -3.1349,-0.53981 -6.24285,-1.71864 -12.34326,-4.68176 -5.27455,-2.562 -8.28931,-3.67915 -11.33357,-4.199815 -1.760314,-0.30107 -6.009054,-0.26575 -7.689294,0.0639 -2.01267,0.394885 -4.45964,1.359625 -7.75445,3.057265 -6.93557,3.57353 -10.24679,4.45604 -15.71137,4.18743 -4.14563,-0.20375 -6.18149,-0.81115 -9.14867,-2.72941 -2.61503,-1.69062 -3.39132,-1.97366 -5.687582,-2.07376 -2.908054,-0.12675 -6.872859,0.65675 -12.255173,2.42185 -7.141283,2.34196 -9.720828,2.94669 -14.227862,3.33546 -4.571962,0.39438 -7.927866,-0.072 -11.472307,-1.59414 -3.559467,-1.52866 -5.834118,-3.31451 -7.9635715,-6.2523 -2.934799,-4.048815 -4.546159,-8.745405 -4.858266,-14.160265 -0.312335,-5.418772 1.015449,-10.839911 4.099622,-16.738131 1.8409503,-3.52066 1.8306663,-3.49732 2.2729455,-5.15618 0.424119,-1.59073 0.501577,-4.15438 0.175533,-5.80973 -0.5325152,-2.70362 -1.4352075,-4.43441 -4.4730475,-8.57653 -2.555003,-3.48375 -3.69954,-5.44918 -4.411612,-7.57569 -0.69242503,-2.06784 -0.87593603,-6.46137 -0.371715,-8.89956 0.533532,-2.57993 1.872771,-5.27571 4.341675,-8.73943 4.1904733,-5.87898 5.1906735,-10.57481 3.477782,-16.3276701 -0.684243,-2.29808 -1.323196,-3.63932 -4.346419,-9.123676 -3.76382603,-6.8278754 -4.58410299,-9.1595589 -4.58887599,-13.0440789 -0.0052,-4.12328 1.19082799,-8.2767 5.27360299,-18.315559 2.217069,-5.4514 3.784689,-11.56952 3.794759,-14.81019 0.01056,-3.41384 -0.662135,-5.58064 -3.210619,-10.34083 -3.434261,-6.41471 -4.22155,-8.78187 -3.98948,-11.99526 0.144587,-2.00206 0.562681,-3.47911 1.499958,-5.29906 3.098568,-6.01661 9.1886695,-9.32077 18.6880745,-10.13913 3.569765,-0.30754 5.231556,-0.32306 7.775036,-0.0727 4.820884,0.47463 8.300991,1.42324 15.535774,4.23473 4.254149,1.6532 5.963679,2.13253 7.601195,2.13127 1.613919,-0.001 1.943172,-0.13558 5.636813,-2.29986 6.21986,-3.64454 9.45626,-4.59511 14.90655,-4.37827 4.43946,0.17662 7.01753,1.00372 12.69234,4.07196 5.71466,3.08978 8.13267,3.89627 12.17654,4.06131 4.698384,0.19176 7.574134,-0.5863 16.274324,-4.40311 8.14393,-3.57278 10.13367,-4.14477 14.46715,-4.15877 4.56585,-0.0148 9.32868,1.10131 19.54331,4.57957 5.92188,2.01651 6.6351,2.18173 8.90944,2.06387 1.95714,-0.10137 3.81873,-0.61035 8.86518,-2.42358 7.10414,-2.55257 10.17754,-3.25406 16.06202,-3.6661 3.28669,-0.23015 5.34436,-0.0103 8.29818,0.88791 5.17606,1.57335 8.69271,4.48799 11.51203,9.5412 4.70343,8.43023 4.39858,18.74508 -0.84025,28.42994 -2.31365,4.27721 -2.72651,5.74727 -2.56214,9.12331 0.18012,3.69956 0.98619,5.53844 4.51065,10.29004 2.54325,3.428769 3.77081,5.526509 4.52741,7.736879 0.50156,1.4652 0.53363,1.75961 0.54191,4.97509 0.007,3.01699 -0.0426,3.58579 -0.42937,4.8509685 -0.69419,2.270574 -1.59593,3.9980164 -3.79929,7.2782404 -2.52036,3.752128 -2.92759,4.467961 -3.64535,6.407701 -1.53576,4.15043 -1.12448,8.8405301 1.21993,13.9114401 0.38484,0.83242 1.79677,3.47586 3.13765,5.87432 3.50188,6.26394 4.4478,8.99426 4.45387,12.85574 0.007,4.00422 -1.04295,7.59243 -5.40683,18.49081 -1.22114,3.04965 -2.11236,5.86864 -2.81236,8.89559 -0.87716,3.79303 -1.04217,5.30601 -0.79708,7.30885 0.34784,2.84277 0.99495,4.6152 3.19941,8.763169 3.37425,6.349077 4.15889,8.684897 3.9474,11.751147 -0.41748,6.0524 -4.55575,11.204315 -10.96797,13.654545 -4.25336,1.62528 -9.99697,2.39524 -15.67514,2.10131 -4.65464,-0.24094 -8.93182,-1.24427 -14.5299,-3.40834 -4.33475,-1.67572 -5.67043,-2.01206 -8.46293,-2.13102 -3.54877,-0.15118 -5.10277,0.20106 -14.03158,3.18051 -3.87133,1.29181 -7.49155,2.22492 -10.91453,2.8132 -2.30213,0.39565 -6.93376,0.49848 -8.7062,0.19327 z"
       id="path1-1" /><path
       style="fill:#f9f9f9;stroke-width:0.698551"
       d="m 124.42092,296.81388 c -3.1349,-0.53981 -6.24285,-1.71864 -12.34326,-4.68176 -5.27456,-2.562 -8.28932,-3.67915 -11.33358,-4.19982 -1.76031,-0.30107 -6.009046,-0.26575 -7.689286,0.0639 -2.01267,0.39489 -4.45963,1.35963 -7.75445,3.05727 -6.93557,3.57353 -10.24679,4.45604 -15.71137,4.18743 -4.14563,-0.20375 -6.18148,-0.81115 -9.14866,-2.72941 -2.61504,-1.69062 -3.39133,-1.97366 -5.68759,-2.07376 -2.90805,-0.12675 -6.87286,0.65675 -12.25517,2.42185 -7.14129,2.34196 -9.72083,2.94669 -14.22786,3.33546 -4.57197,0.39438 -7.92787,-0.072 -11.47231,-1.59414 -3.55947,-1.52866 -5.83412,-3.31451 -7.9635704,-6.2523 -2.9347995,-4.04882 -4.5461595,-8.74541 -4.8582695,-14.16027 -0.31233,-5.41877 1.01545,-10.83991 4.09962,-16.73813 1.8409497,-3.52066 1.8306697,-3.49732 2.2729499,-5.15618 0.42412,-1.59073 0.50158,-4.15438 0.17553,-5.80973 -0.5325102,-2.70362 -1.4352104,-4.43441 -4.4730499,-8.57653 -2.555,-3.48375 -3.69954,-5.44918 -4.41161,-7.57569 -0.69242003,-2.06784 -0.87593003,-6.46137 -0.37171,-8.89956 0.53353,-2.57993 1.87277,-5.27571 4.34167,-8.73943 4.1904797,-5.87898 5.1906799,-10.57481 3.4777795,-16.32766 -0.6842395,-2.29809 -1.3231895,-3.63932 -4.3464095,-9.12368 -3.76383003,-6.82788 -4.58411006,-9.15956 -4.58888006,-13.04408 -0.005,-4.12328 1.19083006,-8.2767 5.27360006,-18.31556 2.21707,-5.4514 3.7846895,-11.56952 3.7947595,-14.81019 0.0106,-3.41384 -0.6621295,-5.58064 -3.2106195,-10.34083 -3.43426,-6.41471 -4.22155,-8.78187 -3.98948,-11.99526 0.14459,-2.00206 0.56268,-3.47911 1.49996,-5.29906 3.09857,-6.01661 9.1886699,-9.32077 18.6880799,-10.13913 3.56976,-0.30754 5.23155,-0.32306 7.77503,-0.0726 4.82089,0.47463 8.30099,1.42324 15.53578,4.23473 4.25414,1.6532 5.96367,2.13254 7.60119,2.13128 1.61392,-0.001 1.94317,-0.13558 5.63682,-2.29987 6.21986,-3.64454 9.45625,-4.5951 14.90655,-4.37826 4.43945,0.17662 7.01752,1.00371 12.69234,4.07195 5.71465,3.08979 8.13267,3.89627 12.17653,4.06131 4.698376,0.19177 7.574126,-0.58629 16.274326,-4.40311 8.14393,-3.57278 10.13367,-4.14476 14.46715,-4.15876 4.56585,-0.0148 9.32868,1.10131 19.54331,4.57957 5.92188,2.01651 6.6351,2.18172 8.90944,2.06387 1.95714,-0.10137 3.81873,-0.61036 8.86518,-2.42359 7.10414,-2.55256 10.17754,-3.25406 16.06202,-3.66609 3.28669,-0.23015 5.34436,-0.0103 8.29818,0.8879 5.17606,1.57335 8.69271,4.48799 11.51203,9.54121 4.70343,8.43023 4.39858,18.74507 -0.84025,28.42993 -2.31365,4.27722 -2.72651,5.74728 -2.56214,9.12331 0.18012,3.69956 0.98619,5.53845 4.51065,10.29005 2.54325,3.42876 3.77081,5.52651 4.52741,7.73688 0.50156,1.46519 0.53363,1.7596 0.54191,4.97509 0.007,3.01699 -0.0426,3.58579 -0.42937,4.85096 -0.69419,2.27058 -1.59593,3.99802 -3.79929,7.27824 -2.52036,3.75213 -2.92759,4.46796 -3.64535,6.4077 -1.53576,4.15043 -1.12448,8.84053 1.21993,13.91144 0.38484,0.83242 1.79677,3.47586 3.13765,5.87432 3.50188,6.26394 4.4478,8.99426 4.45387,12.85574 0.007,4.00422 -1.04295,7.59243 -5.40683,18.49081 -1.22114,3.04965 -2.11236,5.86864 -2.81236,8.89559 -0.87716,3.79303 -1.04217,5.30601 -0.79708,7.30885 0.34784,2.84277 0.99495,4.6152 3.19941,8.76317 3.37425,6.34908 4.15889,8.6849 3.9474,11.75115 -0.41748,6.0524 -4.55575,11.20432 -10.96797,13.65455 -4.25336,1.62528 -9.99697,2.39524 -15.67514,2.10131 -4.65464,-0.24094 -8.93182,-1.24427 -14.5299,-3.40834 -4.33475,-1.67572 -5.67043,-2.01206 -8.46293,-2.13102 -3.54877,-0.15118 -5.10277,0.20106 -14.03158,3.18051 -3.87133,1.29181 -7.49155,2.22492 -10.91453,2.8132 -2.30213,0.39565 -6.93376,0.49848 -8.7062,0.19327 z"
       id="path1-5" /></g></svg>
