<?xml version="1.0" encoding="UTF-8" standalone="no"?>
<!-- Created with Inkscape (http://www.inkscape.org/) -->

<svg
   width="210mm"
   height="297mm"
   viewBox="0 0 210 297"
   version="1.1"
   id="svg1"
   xml:space="preserve"
   sodipodi:docname="cartacorpomeio.svg"
   inkscape:version="1.4.2 (f4327f4, 2025-05-13)"
   xmlns:inkscape="http://www.inkscape.org/namespaces/inkscape"
   xmlns:sodipodi="http://sodipodi.sourceforge.net/DTD/sodipodi-0.dtd"
   xmlns="http://www.w3.org/2000/svg"
   xmlns:svg="http://www.w3.org/2000/svg"><sodipodi:namedview
     id="namedview1"
     pagecolor="#ffffff"
     bordercolor="#000000"
     borderopacity="0.25"
     inkscape:showpageshadow="2"
     inkscape:pageopacity="0.0"
     inkscape:pagecheckerboard="0"
     inkscape:deskcolor="#d1d1d1"
     inkscape:document-units="mm"
     inkscape:zoom="0.37104026"
     inkscape:cx="343.62847"
     inkscape:cy="467.60424"
     inkscape:window-width="1920"
     inkscape:window-height="1051"
     inkscape:window-x="-9"
     inkscape:window-y="-9"
     inkscape:window-maximized="1"
     inkscape:current-layer="layer1" /><defs
     id="defs1" /><g
     inkscape:label="Camada 1"
     inkscape:groupmode="layer"
     id="layer1"><path
       style="fill:#f9f9f9;stroke-width:0.698551"
       d="m 124.45336,117.30552 c -3.1349,-0.53981 -6.24285,-1.71864 -12.34326,-4.68176 -5.27456,-2.562 -8.28932,-3.67915 -11.33358,-4.19982 -1.76032,-0.30107 -6.009062,-0.26575 -7.689306,0.0639 -2.012666,0.39489 -4.459633,1.35963 -7.754444,3.05727 -6.935572,3.57353 -10.246791,4.45604 -15.71137,4.18743 -4.145635,-0.20375 -6.181489,-0.81115 -9.148669,-2.72941 -2.615037,-1.69062 -3.391323,-1.97366 -5.687585,-2.07376 -2.908054,-0.12675 -6.872859,0.65675 -12.255173,2.42185 -7.141283,2.34196 -9.720828,2.94669 -14.227862,3.33546 -4.571962,0.39438 -7.927866,-0.072 -11.472307,-1.59414 -3.559467,-1.52866 -5.834118,-3.31451 -7.9635715,-6.2523 -2.9347989,-4.04882 -4.5461587,-8.74541 -4.8582662,-14.160269 -0.3123344,-5.41877 1.0154492,-10.83991 4.0996222,-16.73813 1.84095,-3.52066 1.830666,-3.49732 2.2729455,-5.15618 0.424119,-1.59073 0.501577,-4.15438 0.175533,-5.80973 -0.532515,-2.70362 -1.4352075,-4.43441 -4.4730476,-8.57653 -2.5550027,-3.483746 -3.6995401,-5.449176 -4.4116112,-7.575686 -0.69242537,-2.06784 -0.87593667,-6.46137 -0.3717156,-8.89956 0.5335323,-2.57993 1.8727711,-5.27571 4.3416749,-8.73943 4.190473,-5.87898 5.1906735,-10.57481 3.477782,-16.327667 C 8.4349069,14.558973 7.7959542,13.217739 4.7727308,7.7333787 1.0089052,0.90550374 0.18862773,-1.4261763 0.18385443,-5.3107013 0.17869323,-9.4339813 1.3746831,-13.5874 5.4574577,-23.626255 c 2.2170691,-5.4514 3.7846888,-11.569521 3.7947588,-14.81019 0.010561,-3.413847 -0.662135,-5.580642 -3.2106189,-10.340837 -3.4342606,-6.414706 -4.2215502,-8.781871 -3.9894803,-11.995258 0.1445872,-2.002056 0.5626818,-3.479113 1.4999584,-5.299063 3.0985681,-6.016611 9.1886693,-9.320767 18.6880743,-10.13913 3.569765,-0.307535 5.231556,-0.323056 7.775036,-0.07265 4.820884,0.474634 8.300991,1.423244 15.535774,4.234734 4.254149,1.653199 5.963679,2.132534 7.601195,2.131272 1.613919,-0.0013 1.943172,-0.13558 5.636815,-2.299865 6.219862,-3.644536 9.456257,-4.595104 14.906553,-4.378261 4.439456,0.176617 7.017525,1.003713 12.69234,4.07195 5.714652,3.089787 8.132668,3.896274 12.176534,4.061312 4.698393,0.191765 7.574143,-0.586295 16.274343,-4.403109 8.14393,-3.572779 10.13367,-4.144764 14.46715,-4.158765 4.56585,-0.01481 9.32868,1.101309 19.54331,4.579571 5.92188,2.016507 6.6351,2.181725 8.90944,2.063868 1.95714,-0.101369 3.81873,-0.610355 8.86518,-2.423581 7.10414,-2.552567 10.17754,-3.254065 16.06202,-3.666099 3.28669,-0.230149 5.34436,-0.0103 8.29818,0.887904 5.17606,1.573353 8.69271,4.48799 11.51203,9.541204 4.70343,8.430234 4.39858,18.745077 -0.84025,28.429936 -2.31365,4.277216 -2.72651,5.747279 -2.56214,9.12331 0.18012,3.699563 0.98619,5.538446 4.51065,10.290049 2.54325,3.428763 3.77081,5.526507 4.52741,7.736877 0.50156,1.4651947 0.53363,1.7596047 0.54191,4.9750927 0.007,3.016986 -0.0426,3.585789 -0.42937,4.85096304 -0.69419,2.27057396 -1.59593,3.99801596 -3.79929,7.27823996 -2.52036,3.7521283 -2.92759,4.4679613 -3.64535,6.4077003 -1.53576,4.150432 -1.12448,8.840531 1.21993,13.911441 0.38484,0.83242 1.79677,3.47586 3.13765,5.87432 3.50188,6.26394 4.4478,8.99426 4.45387,12.85574 0.007,4.00422 -1.04295,7.59243 -5.40683,18.490806 -1.22114,3.04965 -2.11236,5.86864 -2.81236,8.89559 -0.87716,3.79303 -1.04217,5.30601 -0.79708,7.30885 0.34784,2.84277 0.99495,4.6152 3.19941,8.76317 3.37425,6.34908 4.15889,8.6849 3.9474,11.751153 -0.41748,6.0524 -4.55575,11.20432 -10.96797,13.65455 -4.25336,1.62528 -9.99697,2.39524 -15.67514,2.10131 -4.65464,-0.24094 -8.93182,-1.24427 -14.5299,-3.40834 -4.33475,-1.67572 -5.67043,-2.01206 -8.46293,-2.13102 -3.54877,-0.15118 -5.10277,0.20106 -14.03158,3.18051 -3.87133,1.29181 -7.49155,2.22492 -10.91453,2.8132 -2.30213,0.39565 -6.93376,0.49848 -8.7062,0.19327 z"
       id="path1" /><path
       style="fill:#f9f9f9;stroke-width:0.698551"
       d="m 124.49192,221.04629 c -3.1349,-0.53982 -6.24285,-1.71864 -12.34326,-4.68176 -5.27456,-2.56201 -8.28932,-3.67915 -11.33358,-4.19983 -1.760319,-0.30107 -6.009059,-0.26575 -7.689309,0.0639 -2.01266,0.39488 -4.45963,1.35962 -7.75444,3.05726 -6.93557,3.57354 -10.24679,4.45604 -15.71137,4.18744 -4.14564,-0.20375 -6.18149,-0.81115 -9.14867,-2.72941 -2.61504,-1.69062 -3.39132,-1.97366 -5.68758,-2.07376 -2.90806,-0.12676 -6.87286,0.65674 -12.25518,2.42185 -7.14128,2.34195 -9.72083,2.94669 -14.22786,3.33545 -4.57196,0.39438 -7.92787,-0.072 -11.47231,-1.59414 -3.55946,-1.52866 -5.83411,-3.3145 -7.9635703,-6.2523 -2.9348,-4.04882 -4.54616,-8.7454 -4.85826,-14.16026 -0.31234,-5.41877 1.01545,-10.83991 4.09962,-16.73813 1.84095,-3.52066 1.83066,-3.49732 2.2729403,-5.15618 0.42412,-1.59073 0.50158,-4.15438 0.17554,-5.80973 -0.53252,-2.70362 -1.4352103,-4.43441 -4.4730503,-8.57653 -2.555,-3.48375 -3.69954,-5.44918 -4.41161,-7.57569 -0.69243,-2.06784 -0.87593997,-6.46137 -0.37172,-8.89956 0.53353,-2.57993 1.87277,-5.27571 4.34168,-8.73943 4.19047,-5.87898 5.1906703,-10.57481 3.47778,-16.32767 -0.68424,-2.29808 -1.3232,-3.63932 -4.34642,-9.12368 -3.76382,-6.82787 -4.58409997,-9.15955 -4.58887997,-13.044075 -0.005,-4.12328 1.19082997,-8.276699 5.27360997,-18.315554 2.21707,-5.4514 3.78469,-11.569521 3.79476,-14.81019 0.0106,-3.413847 -0.66214,-5.580642 -3.21062,-10.340837 -3.43426,-6.414706 -4.22155,-8.781871 -3.98948,-11.995258 0.14458,-2.002056 0.56268,-3.479113 1.49996,-5.299063 3.09856,-6.016611 9.1886603,-9.320767 18.6880703,-10.13913 3.56976,-0.307535 5.23156,-0.323056 7.77504,-0.07265 4.82088,0.474634 8.30099,1.423244 15.53577,4.234734 4.25415,1.653199 5.96368,2.132534 7.60119,2.131272 1.61392,-0.0013 1.94318,-0.13558 5.63682,-2.299865 6.21986,-3.644536 9.45626,-4.595104 14.90655,-4.378261 4.43946,0.176617 7.01753,1.003713 12.69234,4.07195 5.71465,3.089787 8.13267,3.896274 12.17654,4.061312 4.698389,0.191765 7.574139,-0.586295 16.274339,-4.403109 8.14393,-3.572779 10.13367,-4.144764 14.46715,-4.158765 4.56585,-0.01481 9.32868,1.101309 19.54331,4.579571 5.92188,2.016507 6.6351,2.181725 8.90944,2.063868 1.95714,-0.101369 3.81873,-0.610355 8.86518,-2.423581 7.10414,-2.552567 10.17754,-3.254065 16.06202,-3.666099 3.28669,-0.230149 5.34436,-0.0103 8.29818,0.887904 5.17606,1.573353 8.69271,4.48799 11.51203,9.541204 4.70343,8.430234 4.39858,18.745077 -0.84025,28.429936 -2.31365,4.277216 -2.72651,5.747279 -2.56214,9.12331 0.18012,3.699563 0.98619,5.538446 4.51065,10.290049 2.54325,3.428763 3.77081,5.526507 4.52741,7.736877 0.50156,1.465195 0.53363,1.759605 0.54191,4.975093 0.007,3.016987 -0.0426,3.585787 -0.42937,4.850967 -0.69419,2.27057 -1.59593,3.99801 -3.79929,7.27824 -2.52036,3.75212 -2.92759,4.46796 -3.64535,6.4077 -1.53576,4.15043 -1.12448,8.84053 1.21993,13.91144 0.38484,0.83242 1.79677,3.47586 3.13765,5.87432 3.50188,6.26394 4.4478,8.99426 4.45387,12.85574 0.007,4.00422 -1.04295,7.59243 -5.40683,18.4908 -1.22114,3.04965 -2.11236,5.86864 -2.81236,8.89559 -0.87716,3.79303 -1.04217,5.30601 -0.79708,7.30885 0.34784,2.84277 0.99495,4.6152 3.19941,8.76317 3.37425,6.34908 4.15889,8.6849 3.9474,11.75116 -0.41748,6.0524 -4.55575,11.20432 -10.96797,13.65455 -4.25336,1.62528 -9.99697,2.39524 -15.67514,2.1013 -4.65464,-0.24093 -8.93182,-1.24426 -14.5299,-3.40833 -4.33475,-1.67572 -5.67043,-2.01206 -8.46293,-2.13102 -3.54877,-0.15119 -5.10277,0.20105 -14.03158,3.18051 -3.87133,1.29181 -7.49155,2.22492 -10.91453,2.8132 -2.30213,0.39565 -6.93376,0.49848 -8.7062,0.19327 z"
       id="path1-1" /><path
       style="fill:#f9f9f9;stroke-width:0.698551"
       d="m 125.13401,315.3541 c -3.1349,-0.53981 -6.24285,-1.71864 -12.34326,-4.68176 -5.27456,-2.562 -8.28932,-3.67915 -11.33358,-4.19982 -1.760315,-0.30107 -6.009051,-0.26575 -7.689291,0.0639 -2.01267,0.39489 -4.45963,1.35963 -7.75445,3.05727 -6.93557,3.57353 -10.24679,4.45604 -15.71137,4.18743 -4.14563,-0.20375 -6.18148,-0.81115 -9.14866,-2.72941 -2.61504,-1.69062 -3.39133,-1.97366 -5.68759,-2.07376 -2.90805,-0.12675 -6.87286,0.65675 -12.25517,2.42185 -7.14129,2.34196 -9.72083,2.94669 -14.22786,3.33546 -4.57197,0.39438 -7.92787,-0.072 -11.47231,-1.59414 -3.55947,-1.52866 -5.83412,-3.31451 -7.9635702,-6.2523 -2.9347995,-4.04882 -4.5461595,-8.74541 -4.8582695,-14.16027 -0.31233,-5.41877 1.01545,-10.83991 4.09962,-16.73813 1.8409497,-3.52066 1.8306697,-3.49732 2.2729497,-5.15618 0.42412,-1.59073 0.50158,-4.15438 0.17553,-5.80973 -0.53251,-2.70362 -1.4352102,-4.43441 -4.4730497,-8.57653 -2.555,-3.48375 -3.69954,-5.44918 -4.41161,-7.57569 -0.69242,-2.06784 -0.87593,-6.46137 -0.37171,-8.89956 0.53353,-2.57993 1.87277,-5.27571 4.34167,-8.73943 4.1904797,-5.87898 5.1906797,-10.57481 3.4777795,-16.32766 -0.6842395,-2.29809 -1.3231895,-3.63932 -4.3464095,-9.12368 -3.76383,-6.82788 -4.58411003,-9.15956 -4.58888003,-13.04408 -0.005,-4.12328 1.19083003,-8.2767 5.27360003,-18.31556 2.21707,-5.4514 3.7846895,-11.56952 3.7947595,-14.81019 0.0106,-3.41384 -0.6621295,-5.58064 -3.2106195,-10.34083 -3.43426,-6.41471 -4.22155,-8.78187 -3.98948,-11.99526 0.14459,-2.00206 0.56268,-3.47911 1.49996,-5.29906 3.09857,-6.01661 9.1886697,-9.32077 18.6880797,-10.13913 3.56976,-0.30754 5.23155,-0.32306 7.77503,-0.0726 4.82089,0.47463 8.30099,1.42324 15.53578,4.23473 4.25414,1.6532 5.96367,2.13254 7.60119,2.13128 1.61392,-0.001 1.94317,-0.13558 5.63682,-2.29987 6.21986,-3.64454 9.45625,-4.5951 14.90655,-4.37826 4.43945,0.17662 7.01752,1.00371 12.69234,4.07195 5.71465,3.08979 8.13267,3.89627 12.17653,4.06131 4.698381,0.19177 7.574131,-0.58629 16.274331,-4.40311 8.14393,-3.57278 10.13367,-4.14476 14.46715,-4.15876 4.56585,-0.0148 9.32868,1.10131 19.54331,4.57957 5.92188,2.01651 6.6351,2.18172 8.90944,2.06387 1.95714,-0.10137 3.81873,-0.61036 8.86518,-2.42359 7.10414,-2.55256 10.17754,-3.25406 16.06202,-3.66609 3.28669,-0.23015 5.34436,-0.0103 8.29818,0.8879 5.17606,1.57335 8.69271,4.48799 11.51203,9.54121 4.70343,8.43023 4.39858,18.74507 -0.84025,28.42993 -2.31365,4.27722 -2.72651,5.74728 -2.56214,9.12331 0.18012,3.69956 0.98619,5.53845 4.51065,10.29005 2.54325,3.42876 3.77081,5.52651 4.52741,7.73688 0.50156,1.46519 0.53363,1.7596 0.54191,4.97509 0.007,3.01699 -0.0426,3.58579 -0.42937,4.85096 -0.69419,2.27058 -1.59593,3.99802 -3.79929,7.27824 -2.52036,3.75213 -2.92759,4.46796 -3.64535,6.4077 -1.53576,4.15043 -1.12448,8.84053 1.21993,13.91144 0.38484,0.83242 1.79677,3.47586 3.13765,5.87432 3.50188,6.26394 4.4478,8.99426 4.45387,12.85574 0.007,4.00422 -1.04295,7.59243 -5.40683,18.49081 -1.22114,3.04965 -2.11236,5.86864 -2.81236,8.89559 -0.87716,3.79303 -1.04217,5.30601 -0.79708,7.30885 0.34784,2.84277 0.99495,4.6152 3.19941,8.76317 3.37425,6.34908 4.15889,8.6849 3.9474,11.75115 -0.41748,6.0524 -4.55575,11.20432 -10.96797,13.65455 -4.25336,1.62528 -9.99697,2.39524 -15.67514,2.10131 -4.65464,-0.24094 -8.93182,-1.24427 -14.5299,-3.40834 -4.33475,-1.67572 -5.67043,-2.01206 -8.46293,-2.13102 -3.54877,-0.15118 -5.10277,0.20106 -14.03158,3.18051 -3.87133,1.29181 -7.49155,2.22492 -10.91453,2.8132 -2.30213,0.39565 -6.93376,0.49848 -8.7062,0.19327 z"
       id="path1-5" /></g></svg>
