<?xml version="1.0" encoding="UTF-8" standalone="no"?>
<!-- Created with Inkscape (http://www.inkscape.org/) -->

<svg
   width="210mm"
   height="297mm"
   viewBox="0 0 210 297"
   version="1.1"
   id="svg1"
   xml:space="preserve"
   inkscape:version="1.4.2 (f4327f4, 2025-05-13)"
   sodipodi:docname="corpodacarta.svg"
   xmlns:inkscape="http://www.inkscape.org/namespaces/inkscape"
   xmlns:sodipodi="http://sodipodi.sourceforge.net/DTD/sodipodi-0.dtd"
   xmlns="http://www.w3.org/2000/svg"
   xmlns:svg="http://www.w3.org/2000/svg"><sodipodi:namedview
     id="namedview1"
     pagecolor="#ffffff"
     bordercolor="#000000"
     borderopacity="0.25"
     inkscape:showpageshadow="2"
     inkscape:pageopacity="0.0"
     inkscape:pagecheckerboard="0"
     inkscape:deskcolor="#d1d1d1"
     inkscape:document-units="mm"
     showguides="false"
     inkscape:zoom="0.37104026"
     inkscape:cx="591.58"
     inkscape:cy="712.86064"
     inkscape:window-width="1920"
     inkscape:window-height="1051"
     inkscape:window-x="-9"
     inkscape:window-y="-9"
     inkscape:window-maximized="1"
     inkscape:current-layer="layer1" /><defs
     id="defs1" /><g
     inkscape:label="Camada 1"
     inkscape:groupmode="layer"
     id="layer1"><path
       style="fill:#f9f9f9"
       d="m 122.77202,257.0736 c -2.86185,-0.57766 -5.69912,-1.83919 -11.2682,-5.01014 -4.81517,-2.74169 -7.56737,-3.93721 -10.34649,-4.49439 -1.606995,-0.32219 -5.485693,-0.28439 -7.019603,0.0684 -1.83737,0.42259 -4.07122,1.45499 -7.07906,3.2717 -6.33153,3.82418 -9.35435,4.7686 -14.34299,4.48116 -3.78457,-0.21806 -5.64312,-0.86805 -8.35187,-2.92087 -2.38728,-1.8092 -3.09595,-2.11209 -5.19222,-2.21921 -2.65478,-0.13567 -6.27427,0.70281 -11.18781,2.59172 -6.51932,2.50623 -8.8742,3.15337 -12.98869,3.56941 -4.17377,0.42204 -7.23739,-0.077 -10.47313,-1.70596 -3.24945,-1.63588 -5.32599,-3.54699 -7.26998,-6.69084 -2.67919,-4.3328 -4.15021,-9.35881 -4.43513,-15.15347 -0.28514,-5.79885 0.92701,-11.60024 3.74256,-17.91217 1.68061,-3.76759 1.67123,-3.74263 2.07498,-5.51782 0.38718,-1.70231 0.45789,-4.44578 0.16024,-6.21724 -0.48613,-2.89325 -1.3102,-4.74545 -4.08346,-9.1781 -2.33247,-3.7281 -3.37733,-5.83138 -4.02738,-8.10706 -0.63212,-2.21288 -0.7996502,-6.91456 -0.33934,-9.52376 0.48706,-2.76091 1.70966,-5.64576 3.96353,-9.35245 3.8255,-6.29134 4.7386,-11.31653 3.17489,-17.4729 -0.62465,-2.45925 -1.20795,-3.89457 -3.96787,-9.76361 -3.43601,-7.30678 -4.1848502,-9.80201 -4.1892002,-13.95899 -0.005,-4.41249 1.0871102,-8.85724 4.8142902,-19.60023 2.02398,-5.83377 3.45507,-12.381025 3.46426,-15.848995 0.01,-3.6533 -0.60447,-5.97208 -2.93099,-11.06615 -3.13515,-6.86465 -3.85388,-9.39785 -3.64202,-12.83662 0.13199,-2.14248 0.51368,-3.72314 1.36932,-5.67074 2.82869,-6.438623 8.38838,-9.974539 17.06043,-10.850297 3.25886,-0.3291 4.77592,-0.345714 7.09788,-0.07773 4.401,0.507932 7.57801,1.523076 14.18269,4.53177 3.88362,1.769149 5.44427,2.282099 6.93916,2.280755 1.47336,-0.0013 1.77393,-0.145085 5.14588,-2.461181 5.67814,-3.900159 8.63266,-4.917405 13.60827,-4.685358 4.05279,0.189009 6.40633,1.07412 11.5869,4.357566 5.21694,3.306495 7.42435,4.169555 11.11601,4.346175 4.289183,0.20521 6.914463,-0.62742 14.856923,-4.711949 7.43464,-3.823384 9.25109,-4.435479 13.20714,-4.450467 4.16818,-0.01579 8.5162,1.178564 17.84117,4.90079 5.40612,2.157945 6.05723,2.334752 8.13347,2.208626 1.78668,-0.108535 3.48615,-0.653161 8.09308,-2.593569 6.4854,-2.731611 9.29112,-3.482306 14.6631,-3.923248 3.00044,-0.246282 4.8789,-0.01067 7.57546,0.950183 4.72523,1.683718 7.93561,4.802782 10.50937,10.210434 4.29379,9.02154 4.01549,20.05987 -0.76706,30.42404 -2.11215,4.57722 -2.48904,6.1504 -2.33899,9.763235 0.16442,3.95905 0.90029,5.92691 4.11779,11.0118 2.32175,3.66926 3.44238,5.91414 4.13311,8.27954 0.45786,1.56798 0.48714,1.88303 0.4947,5.32405 0.007,3.22861 -0.0389,3.8373 -0.39197,5.19121 -0.63373,2.42984 -1.45693,4.27844 -3.4684,7.78874 -2.30084,4.01531 -2.67262,4.78136 -3.32785,6.85715 -1.40201,4.44155 -1.02654,9.46062 1.11368,14.88722 0.35132,0.89079 1.64029,3.71965 2.86438,6.28635 3.19687,6.70329 4.06041,9.62512 4.06594,13.75743 0.006,4.28509 -0.95209,8.12498 -4.93592,19.78779 -1.11477,3.26355 -1.92838,6.28026 -2.56741,9.51953 -0.80076,4.05907 -0.95139,5.67818 -0.72766,7.8215 0.31755,3.04216 0.9083,4.9389 2.92077,9.37782 3.08037,6.79441 3.79667,9.29406 3.60359,12.57538 -0.38111,6.47691 -4.15896,11.99021 -10.01271,14.6123 -3.88291,1.73928 -9.12629,2.56324 -14.30991,2.2487 -4.24924,-0.25785 -8.15391,-1.33154 -13.26443,-3.64742 -3.95721,-1.79325 -5.17656,-2.15317 -7.72585,-2.28048 -3.23969,-0.16178 -4.65834,0.21516 -12.8095,3.40359 -3.53415,1.38242 -6.83906,2.38098 -9.96393,3.01053 -2.10162,0.4234 -6.32985,0.53343 -7.94794,0.20683 z"
       id="path1" /></g></svg>
