<?xml version="1.0" encoding="UTF-8" standalone="no"?>
<!-- Created with Inkscape (http://www.inkscape.org/) -->

<svg
   width="210mm"
   height="297mm"
   viewBox="0 0 210 297"
   version="1.1"
   id="svg1"
   xml:space="preserve"
   xmlns="http://www.w3.org/2000/svg"
   xmlns:svg="http://www.w3.org/2000/svg"><defs
     id="defs1" /><g
     id="layer1"><g
       id="layer1-8"
       transform="translate(-1.8242606,-267.51921)"><path
         style="fill:#f9f9f9;stroke-width:0.698551"
         d="m 125.16644,195.7449 c -3.1349,-0.53981 -6.24285,-1.71864 -12.34326,-4.68176 -5.27456,-2.562 -8.28932,-3.67915 -11.33358,-4.19982 -1.760315,-0.30107 -6.009057,-0.26575 -7.689301,0.0639 -2.012666,0.39489 -4.459633,1.35963 -7.754444,3.05727 -6.935572,3.57353 -10.246791,4.45604 -15.71137,4.18743 -4.145635,-0.20375 -6.181489,-0.81115 -9.148669,-2.72941 -2.615037,-1.69062 -3.391323,-1.97366 -5.687585,-2.07376 -2.908054,-0.12675 -6.872859,0.65675 -12.255173,2.42185 -7.141283,2.34196 -9.720828,2.94669 -14.227862,3.33546 -4.571962,0.39438 -7.927866,-0.072 -11.472307,-1.59414 -3.559467,-1.52866 -5.834118,-3.31451 -7.9635712,-6.2523 -2.9347989,-4.04882 -4.5461587,-8.74541 -4.8582662,-14.16027 -0.3123344,-5.41877 1.0154492,-10.83991 4.0996222,-16.73813 1.8409502,-3.52066 1.8306662,-3.49732 2.2729452,-5.15618 0.424119,-1.59073 0.501577,-4.15438 0.175533,-5.80973 C 10.736637,142.71169 9.8339448,140.9809 6.7961047,136.83878 4.241102,133.35503 3.0965646,131.3896 2.3844935,129.26309 1.6920681,127.19525 1.5085568,122.80172 2.0127779,120.36353 2.5463102,117.7836 3.885549,115.08782 6.3544528,111.6241 10.544926,105.74512 11.545126,101.04929 9.8322348,95.296433 9.1479922,92.998348 8.5090395,91.657114 5.4858161,86.172754 1.7219905,79.344879 0.90171297,77.013199 0.89693967,73.128674 0.89177847,69.005394 2.0877684,64.851975 6.170543,54.81312 8.3876121,49.36172 9.9552318,43.2436 9.9653018,40.002931 9.9758628,36.589084 9.3031668,34.422289 6.7546829,29.662094 3.3204223,23.247387 2.5331327,20.880222 2.7652026,17.666835 2.9097898,15.664779 3.3278844,14.187722 4.265161,12.367772 7.3637291,6.3511618 13.45383,3.047005 22.953235,2.2286425 26.523,1.9211078 28.184791,1.9055867 30.728271,2.1559965 35.549155,2.63063 39.029262,3.57924 46.264045,6.3907306 c 4.254149,1.6531991 5.963679,2.1325339 7.601195,2.1312716 1.613919,-0.00126 1.943172,-0.1355801 5.636815,-2.2998644 6.219862,-3.6445368 9.456257,-4.5951047 14.906553,-4.3782615 4.439456,0.1766174 7.017525,1.0037128 12.69234,4.0719504 5.714652,3.0897867 8.132668,3.896274 12.176534,4.0613113 4.698388,0.191765 7.574138,-0.5862947 16.274338,-4.4031081 8.14393,-3.5727797 10.13367,-4.144764 14.46715,-4.1587651 4.56585,-0.014812 9.32868,1.1013084 19.54331,4.5795709 5.92188,2.0165063 6.6351,2.1817244 8.90944,2.0638679 1.95714,-0.1013694 3.81873,-0.6103553 8.86518,-2.4235816 7.10414,-2.5525668 10.17754,-3.2540646 16.06202,-3.6660988 3.28669,-0.2301487 5.34436,-0.010304 8.29818,0.8879042 5.17606,1.5733529 8.69271,4.4879905 11.51203,9.5412036 4.70343,8.430234 4.39858,18.745078 -0.84025,28.429937 -2.31365,4.277215 -2.72651,5.747278 -2.56214,9.123309 0.18012,3.699563 0.98619,5.538446 4.51065,10.290049 2.54325,3.428763 3.77081,5.526507 4.52741,7.736877 0.50156,1.465195 0.53363,1.759605 0.54191,4.975093 0.007,3.016986 -0.0426,3.585789 -0.42937,4.850963 -0.69419,2.270574 -1.59593,3.998016 -3.79929,7.27824 -2.52036,3.752128 -2.92759,4.467961 -3.64535,6.4077 -1.53576,4.150432 -1.12448,8.840531 1.21993,13.911441 0.38484,0.83242 1.79677,3.47586 3.13765,5.87432 3.50188,6.26394 4.4478,8.99426 4.45387,12.85574 0.007,4.00422 -1.04295,7.59243 -5.40683,18.49081 -1.22114,3.04965 -2.11236,5.86864 -2.81236,8.89559 -0.87716,3.79303 -1.04217,5.30601 -0.79708,7.30885 0.34784,2.84277 0.99495,4.6152 3.19941,8.76317 3.37425,6.34908 4.15889,8.6849 3.9474,11.75115 -0.41748,6.0524 -4.55575,11.20432 -10.96797,13.65455 -4.25336,1.62528 -9.99697,2.39524 -15.67514,2.10131 -4.65464,-0.24094 -8.93182,-1.24427 -14.5299,-3.40834 -4.33475,-1.67572 -5.67043,-2.01206 -8.46293,-2.13102 -3.54877,-0.15118 -5.10277,0.20106 -14.03158,3.18051 -3.87133,1.29181 -7.49155,2.22492 -10.91453,2.8132 -2.30213,0.39565 -6.93376,0.49848 -8.7062,0.19327 z"
         id="path1" /><path
         style="fill:#f9f9f9;stroke-width:0.698551"
         d="m 125.13401,307.51016 c -3.1349,-0.53981 -6.24285,-1.71864 -12.34326,-4.68176 -5.27456,-2.562 -8.28932,-3.67915 -11.33358,-4.19982 -1.760315,-0.30107 -6.009051,-0.26575 -7.689291,0.0639 -2.01267,0.39489 -4.45963,1.35963 -7.75445,3.05727 -6.93557,3.57353 -10.24679,4.45604 -15.71137,4.18743 -4.14563,-0.20375 -6.18148,-0.81115 -9.14866,-2.72941 -2.61504,-1.69062 -3.39133,-1.97366 -5.68759,-2.07376 -2.90805,-0.12675 -6.87286,0.65675 -12.25517,2.42185 -7.14129,2.34196 -9.72083,2.94669 -14.22786,3.33546 -4.57197,0.39438 -7.92787,-0.072 -11.47231,-1.59414 -3.55947,-1.52866 -5.83412,-3.31451 -7.9635702,-6.2523 -2.9347995,-4.04882 -4.5461595,-8.74541 -4.8582695,-14.16027 -0.31233,-5.41877 1.01545,-10.83991 4.09962,-16.73813 1.8409497,-3.52066 1.8306697,-3.49732 2.2729497,-5.15618 0.42412,-1.59073 0.50158,-4.15438 0.17553,-5.80973 -0.53251,-2.70362 -1.4352102,-4.43441 -4.4730497,-8.57653 -2.555,-3.48375 -3.69954,-5.44918 -4.41161,-7.57569 -0.69242,-2.06784 -0.87593,-6.46137 -0.37171,-8.89956 0.53353,-2.57993 1.87277,-5.27571 4.34167,-8.73943 4.1904797,-5.87898 5.1906797,-10.57481 3.4777795,-16.32766 -0.6842395,-2.29809 -1.3231895,-3.63932 -4.3464095,-9.12368 -3.76383,-6.82788 -4.58411003,-9.15956 -4.58888003,-13.04408 -0.005,-4.12328 1.19083003,-8.2767 5.27360003,-18.31556 2.21707,-5.4514 3.7846895,-11.56952 3.7947595,-14.81019 0.0106,-3.41384 -0.6621295,-5.58064 -3.2106195,-10.34083 -3.43426,-6.41471 -4.22155,-8.78187 -3.98948,-11.99526 0.14459,-2.00206 0.56268,-3.47911 1.49996,-5.29906 3.09857,-6.01661 9.1886697,-9.32077 18.6880797,-10.13913 3.56976,-0.30754 5.23155,-0.32306 7.77503,-0.0726 4.82089,0.47463 8.30099,1.42324 15.53578,4.23473 4.25414,1.6532 5.96367,2.13254 7.60119,2.13128 1.61392,-10e-4 1.94317,-0.13558 5.63682,-2.29987 6.21986,-3.64454 9.45625,-4.5951 14.90655,-4.37826 4.43945,0.17662 7.01752,1.00371 12.69234,4.07195 5.71465,3.08979 8.13267,3.89627 12.17653,4.06131 4.698381,0.19177 7.574131,-0.58629 16.274331,-4.40311 8.14393,-3.57278 10.13367,-4.14476 14.46715,-4.15876 4.56585,-0.0148 9.32868,1.10131 19.54331,4.57957 5.92188,2.01651 6.6351,2.18172 8.90944,2.06387 1.95714,-0.10137 3.81873,-0.61036 8.86518,-2.42359 7.10414,-2.55256 10.17754,-3.25406 16.06202,-3.66609 3.28669,-0.23015 5.34436,-0.0103 8.29818,0.8879 5.17606,1.57335 8.69271,4.48799 11.51203,9.54121 4.70343,8.43023 4.39858,18.74507 -0.84025,28.42993 -2.31365,4.27722 -2.72651,5.74728 -2.56214,9.12331 0.18012,3.69956 0.98619,5.53845 4.51065,10.29005 2.54325,3.42876 3.77081,5.52651 4.52741,7.73688 0.50156,1.46519 0.53363,1.7596 0.54191,4.97509 0.007,3.01699 -0.0426,3.58579 -0.42937,4.85096 -0.69419,2.27058 -1.59593,3.99802 -3.79929,7.27824 -2.52036,3.75213 -2.92759,4.46796 -3.64535,6.4077 -1.53576,4.15043 -1.12448,8.84053 1.21993,13.91144 0.38484,0.83242 1.79677,3.47586 3.13765,5.87432 3.50188,6.26394 4.4478,8.99426 4.45387,12.85574 0.007,4.00422 -1.04295,7.59243 -5.40683,18.49081 -1.22114,3.04965 -2.11236,5.86864 -2.81236,8.89559 -0.87716,3.79303 -1.04217,5.30601 -0.79708,7.30885 0.34784,2.84277 0.99495,4.6152 3.19941,8.76317 3.37425,6.34908 4.15889,8.6849 3.9474,11.75115 -0.41748,6.0524 -4.55575,11.20432 -10.96797,13.65455 -4.25336,1.62528 -9.99697,2.39524 -15.67514,2.10131 -4.65464,-0.24094 -8.93182,-1.24427 -14.5299,-3.40834 -4.33475,-1.67572 -5.67043,-2.01206 -8.46293,-2.13102 -3.54877,-0.15118 -5.10277,0.20106 -14.03158,3.18051 -3.87133,1.29181 -7.49155,2.22492 -10.91453,2.8132 -2.30213,0.39565 -6.93376,0.49848 -8.7062,0.19327 z"
         id="path1-5" /></g><g
       id="layer1-8-5"
       transform="translate(0.0645601,-3.4737022)"><path
         style="fill:#f9f9f9;stroke-width:0.698551"
         d="m 125.16644,195.7449 c -3.1349,-0.53981 -6.24285,-1.71864 -12.34326,-4.68176 -5.27456,-2.562 -8.28932,-3.67915 -11.33358,-4.19982 -1.760315,-0.30107 -6.009057,-0.26575 -7.689301,0.0639 -2.012666,0.39489 -4.459633,1.35963 -7.754444,3.05727 -6.935572,3.57353 -10.246791,4.45604 -15.71137,4.18743 -4.145635,-0.20375 -6.181489,-0.81115 -9.148669,-2.72941 -2.615037,-1.69062 -3.391323,-1.97366 -5.687585,-2.07376 -2.908054,-0.12675 -6.872859,0.65675 -12.255173,2.42185 -7.141283,2.34196 -9.720828,2.94669 -14.227862,3.33546 -4.571962,0.39438 -7.927866,-0.072 -11.472307,-1.59414 -3.559467,-1.52866 -5.834118,-3.31451 -7.9635712,-6.2523 -2.9347989,-4.04882 -4.5461587,-8.74541 -4.8582662,-14.16027 -0.3123344,-5.41877 1.0154492,-10.83991 4.0996222,-16.73813 1.8409502,-3.52066 1.8306662,-3.49732 2.2729452,-5.15618 0.424119,-1.59073 0.501577,-4.15438 0.175533,-5.80973 C 10.736637,142.71169 9.8339448,140.9809 6.7961047,136.83878 4.241102,133.35503 3.0965646,131.3896 2.3844935,129.26309 1.6920681,127.19525 1.5085568,122.80172 2.0127779,120.36353 2.5463102,117.7836 3.885549,115.08782 6.3544528,111.6241 10.544926,105.74512 11.545126,101.04929 9.8322348,95.296433 9.1479922,92.998348 8.5090395,91.657114 5.4858161,86.172754 1.7219905,79.344879 0.90171297,77.013199 0.89693967,73.128674 0.89177847,69.005394 2.0877684,64.851975 6.170543,54.81312 8.3876121,49.36172 9.9552318,43.2436 9.9653018,40.002931 9.9758628,36.589084 9.3031668,34.422289 6.7546829,29.662094 3.3204223,23.247387 2.5331327,20.880222 2.7652026,17.666835 2.9097898,15.664779 3.3278844,14.187722 4.265161,12.367772 7.3637291,6.3511618 13.45383,3.047005 22.953235,2.2286425 26.523,1.9211078 28.184791,1.9055867 30.728271,2.1559965 35.549155,2.63063 39.029262,3.57924 46.264045,6.3907306 c 4.254149,1.6531991 5.963679,2.1325339 7.601195,2.1312716 1.613919,-0.00126 1.943172,-0.1355801 5.636815,-2.2998644 6.219862,-3.6445368 9.456257,-4.5951047 14.906553,-4.3782615 4.439456,0.1766174 7.017525,1.0037128 12.69234,4.0719504 5.714652,3.0897867 8.132668,3.896274 12.176534,4.0613113 4.698388,0.191765 7.574138,-0.5862947 16.274338,-4.4031081 8.14393,-3.5727797 10.13367,-4.144764 14.46715,-4.1587651 4.56585,-0.014812 9.32868,1.1013084 19.54331,4.5795709 5.92188,2.0165063 6.6351,2.1817244 8.90944,2.0638679 1.95714,-0.1013694 3.81873,-0.6103553 8.86518,-2.4235816 7.10414,-2.5525668 10.17754,-3.2540646 16.06202,-3.6660988 3.28669,-0.2301487 5.34436,-0.010304 8.29818,0.8879042 5.17606,1.5733529 8.69271,4.4879905 11.51203,9.5412036 4.70343,8.430234 4.39858,18.745078 -0.84025,28.429937 -2.31365,4.277215 -2.72651,5.747278 -2.56214,9.123309 0.18012,3.699563 0.98619,5.538446 4.51065,10.290049 2.54325,3.428763 3.77081,5.526507 4.52741,7.736877 0.50156,1.465195 0.53363,1.759605 0.54191,4.975093 0.007,3.016986 -0.0426,3.585789 -0.42937,4.850963 -0.69419,2.270574 -1.59593,3.998016 -3.79929,7.27824 -2.52036,3.752128 -2.92759,4.467961 -3.64535,6.4077 -1.53576,4.150432 -1.12448,8.840531 1.21993,13.911441 0.38484,0.83242 1.79677,3.47586 3.13765,5.87432 3.50188,6.26394 4.4478,8.99426 4.45387,12.85574 0.007,4.00422 -1.04295,7.59243 -5.40683,18.49081 -1.22114,3.04965 -2.11236,5.86864 -2.81236,8.89559 -0.87716,3.79303 -1.04217,5.30601 -0.79708,7.30885 0.34784,2.84277 0.99495,4.6152 3.19941,8.76317 3.37425,6.34908 4.15889,8.6849 3.9474,11.75115 -0.41748,6.0524 -4.55575,11.20432 -10.96797,13.65455 -4.25336,1.62528 -9.99697,2.39524 -15.67514,2.10131 -4.65464,-0.24094 -8.93182,-1.24427 -14.5299,-3.40834 -4.33475,-1.67572 -5.67043,-2.01206 -8.46293,-2.13102 -3.54877,-0.15118 -5.10277,0.20106 -14.03158,3.18051 -3.87133,1.29181 -7.49155,2.22492 -10.91453,2.8132 -2.30213,0.39565 -6.93376,0.49848 -8.7062,0.19327 z"
         id="path1-1" /><path
         style="fill:#f9f9f9;stroke-width:0.698551"
         d="m 125.13401,307.51016 c -3.1349,-0.53981 -6.24285,-1.71864 -12.34326,-4.68176 -5.27456,-2.562 -8.28932,-3.67915 -11.33358,-4.19982 -1.760315,-0.30107 -6.009051,-0.26575 -7.689291,0.0639 -2.01267,0.39489 -4.45963,1.35963 -7.75445,3.05727 -6.93557,3.57353 -10.24679,4.45604 -15.71137,4.18743 -4.14563,-0.20375 -6.18148,-0.81115 -9.14866,-2.72941 -2.61504,-1.69062 -3.39133,-1.97366 -5.68759,-2.07376 -2.90805,-0.12675 -6.87286,0.65675 -12.25517,2.42185 -7.14129,2.34196 -9.72083,2.94669 -14.22786,3.33546 -4.57197,0.39438 -7.92787,-0.072 -11.47231,-1.59414 -3.55947,-1.52866 -5.83412,-3.31451 -7.9635702,-6.2523 -2.9347995,-4.04882 -4.5461595,-8.74541 -4.8582695,-14.16027 -0.31233,-5.41877 1.01545,-10.83991 4.09962,-16.73813 1.8409497,-3.52066 1.8306697,-3.49732 2.2729497,-5.15618 0.42412,-1.59073 0.50158,-4.15438 0.17553,-5.80973 -0.53251,-2.70362 -1.4352102,-4.43441 -4.4730497,-8.57653 -2.555,-3.48375 -3.69954,-5.44918 -4.41161,-7.57569 -0.69242,-2.06784 -0.87593,-6.46137 -0.37171,-8.89956 0.53353,-2.57993 1.87277,-5.27571 4.34167,-8.73943 4.1904797,-5.87898 5.1906797,-10.57481 3.4777795,-16.32766 -0.6842395,-2.29809 -1.3231895,-3.63932 -4.3464095,-9.12368 -3.76383,-6.82788 -4.58411003,-9.15956 -4.58888003,-13.04408 -0.005,-4.12328 1.19083003,-8.2767 5.27360003,-18.31556 2.21707,-5.4514 3.7846895,-11.56952 3.7947595,-14.81019 0.0106,-3.41384 -0.6621295,-5.58064 -3.2106195,-10.34083 -3.43426,-6.41471 -4.22155,-8.78187 -3.98948,-11.99526 0.14459,-2.00206 0.56268,-3.47911 1.49996,-5.29906 3.09857,-6.01661 9.1886697,-9.32077 18.6880797,-10.13913 3.56976,-0.30754 5.23155,-0.32306 7.77503,-0.0726 4.82089,0.47463 8.30099,1.42324 15.53578,4.23473 4.25414,1.6532 5.96367,2.13254 7.60119,2.13128 1.61392,-10e-4 1.94317,-0.13558 5.63682,-2.29987 6.21986,-3.64454 9.45625,-4.5951 14.90655,-4.37826 4.43945,0.17662 7.01752,1.00371 12.69234,4.07195 5.71465,3.08979 8.13267,3.89627 12.17653,4.06131 4.698381,0.19177 7.574131,-0.58629 16.274331,-4.40311 8.14393,-3.57278 10.13367,-4.14476 14.46715,-4.15876 4.56585,-0.0148 9.32868,1.10131 19.54331,4.57957 5.92188,2.01651 6.6351,2.18172 8.90944,2.06387 1.95714,-0.10137 3.81873,-0.61036 8.86518,-2.42359 7.10414,-2.55256 10.17754,-3.25406 16.06202,-3.66609 3.28669,-0.23015 5.34436,-0.0103 8.29818,0.8879 5.17606,1.57335 8.69271,4.48799 11.51203,9.54121 4.70343,8.43023 4.39858,18.74507 -0.84025,28.42993 -2.31365,4.27722 -2.72651,5.74728 -2.56214,9.12331 0.18012,3.69956 0.98619,5.53845 4.51065,10.29005 2.54325,3.42876 3.77081,5.52651 4.52741,7.73688 0.50156,1.46519 0.53363,1.7596 0.54191,4.97509 0.007,3.01699 -0.0426,3.58579 -0.42937,4.85096 -0.69419,2.27058 -1.59593,3.99802 -3.79929,7.27824 -2.52036,3.75213 -2.92759,4.46796 -3.64535,6.4077 -1.53576,4.15043 -1.12448,8.84053 1.21993,13.91144 0.38484,0.83242 1.79677,3.47586 3.13765,5.87432 3.50188,6.26394 4.4478,8.99426 4.45387,12.85574 0.007,4.00422 -1.04295,7.59243 -5.40683,18.49081 -1.22114,3.04965 -2.11236,5.86864 -2.81236,8.89559 -0.87716,3.79303 -1.04217,5.30601 -0.79708,7.30885 0.34784,2.84277 0.99495,4.6152 3.19941,8.76317 3.37425,6.34908 4.15889,8.6849 3.9474,11.75115 -0.41748,6.0524 -4.55575,11.20432 -10.96797,13.65455 -4.25336,1.62528 -9.99697,2.39524 -15.67514,2.10131 -4.65464,-0.24094 -8.93182,-1.24427 -14.5299,-3.40834 -4.33475,-1.67572 -5.67043,-2.01206 -8.46293,-2.13102 -3.54877,-0.15118 -5.10277,0.20106 -14.03158,3.18051 -3.87133,1.29181 -7.49155,2.22492 -10.91453,2.8132 -2.30213,0.39565 -6.93376,0.49848 -8.7062,0.19327 z"
         id="path1-5-7" /></g></g></svg>
